/* XPM */
static char *logo32[] = {
/* columns rows colors chars-per-pixel */
"32 32 256 2",
"   c #66DD7CD81ECD",
".  c #118065185D3E",
"X  c #0F6D4E747C82",
"o  c #14645D407758",
"O  c #36815BB77D80",
"+  c #1B95630975F9",
"@  c #30F6762B62BD",
"#  c #7463741773FC",
"$  c #7DD27DBB7DA4",
"%  c #A01C59EF2EFF",
"&  c #A5025714316E",
"*  c #8A10666D28D1",
"=  c #97165FEF2C07",
"-  c #806A71422A72",
";  c #90FC7BAE507E",
":  c #AC546CDD56BF",
">  c #899A7AA268E7",
",  c #CAC1672D67C3",
"<  c #0C958FDD0E5D",
"1  c #1F2B9F4C0D8A",
"2  c #0F939D8C1341",
"3  c #13118C1B1546",
"4  c #33D29C4D1404",
"5  c #03CFABBE00BC",
"6  c #1AD3AEF30EF7",
"7  c #0CB0B6820738",
"8  c #0D7CBE5D0D7B",
"9  c #05AFB7370346",
"0  c #1233BC7C0CA8",
"q  c #12E9B943093F",
"w  c #16E5BB4611E0",
"e  c #286AA58810B3",
"r  c #28B191F7314A",
"t  c #1C88AA2327B7",
"y  c #21ADB1463CA9",
"u  c #3A44A6A7355B",
"i  c #51EF8A8B1A5F",
"p  c #5ACD852A2037",
"a  c #1478C22D13A8",
"s  c #1AD5C5C51A58",
"d  c #1BA7CCCF1B22",
"f  c #10E9C7340B7F",
"g  c #2A31CEB02D23",
"h  c #21CBCA3322FC",
"j  c #263FC11F30B6",
"k  c #2D3ACAC133D7",
"l  c #2E7CD3063206",
"z  c #39DAD9BD3BFC",
"x  c #3318D6843629",
"c  c #32A4C3EA3883",
"v  c #1CCC8B4B56F2",
"b  c #2CE99B9856D5",
"n  c #2623944358F3",
"m  c #37528B5A486E",
"M  c #2429AAC94381",
"N  c #33E0BA5B4A29",
"B  c #2F46B36A5947",
"V  c #1CF481A770E1",
"C  c #23B88AFB6433",
"Z  c #271182AF6125",
"A  c #2A2A93F177A4",
"S  c #58D3B3974EA3",
"D  c #55DFB64F5A58",
"F  c #40F597F6735A",
"G  c #55279B947CD8",
"H  c #6A638BAC6956",
"J  c #4DAAB4006B21",
"K  c #2E16C21D42D0",
"L  c #37D5C5424669",
"P  c #3CB5DC074285",
"I  c #4120DE4F45CA",
"U  c #446FDCE34987",
"Y  c #4CB3DD5C5525",
"T  c #5243DC2059E5",
"R  c #56F2D7665E38",
"E  c #46B3E1504D43",
"W  c #49FBE0765104",
"Q  c #5BE3DC156208",
"!  c #62F2D6CB684D",
"~  c #6E52D2C473E6",
"^  c #727ED5B4769C",
"/  c #812D803F7FEF",
"(  c #0000075F8222",
")  c #01A40AC08530",
"_  c #00580C368D0D",
"`  c #09010F8884EF",
"'  c #0D1B14A28978",
"]  c #0C3013428623",
"[  c #13BB1B598C8B",
"{  c #18EC1D51868A",
"}  c #00090E6594A6",
"|  c #00000F629B8D",
" . c #00FE10F99C9F",
".. c #0D111B17999A",
"X. c #05C417DF97C1",
"o. c #100F1B0191CF",
"O. c #1E7F23AC8AB7",
"+. c #06D632E1889E",
"@. c #049C25B898AC",
"#. c #1BA1238E9144",
"$. c #1F2F2A889DC9",
"%. c #2F6534148D26",
"&. c #23C92B1F94A2",
"*. c #257F2CDD9820",
"=. c #2BA9340D9A3E",
"-. c #34393A569893",
";. c #248C280A858D",
":. c #00111176A386",
">. c #00431362AAEA",
",. c #0A1B1AC7AA6C",
"<. c #0C801BF2A455",
"1. c #001214B9B397",
"2. c #000014D8BE1C",
"3. c #0F61207DAB4D",
"4. c #138A2495AC66",
"5. c #1C132BB4AF62",
"6. c #1EC12B0BA405",
"7. c #09073261ABC3",
"8. c #18462BA6B66D",
"9. c #16E52919B1C7",
"0. c #1E333083B8C0",
"q. c #2A92352AA021",
"w. c #202F2EDDB676",
"e. c #26F23837B948",
"r. c #102345C491A3",
"t. c #3ADF40C59A49",
"y. c #1C866C1B8B18",
"u. c #3B8544FAA828",
"i. c #31924380C00A",
"p. c #44E04A37994A",
"a. c #4EE4510F93E6",
"s. c #54F1583A993C",
"d. c #7AF27F7B8F3D",
"f. c #6607682F9A41",
"g. c #6A69728B9D82",
"h. c #7B0D7B0F9942",
"j. c #41114805A2DA",
"k. c #4AAB52E9AB90",
"l. c #5AF85E58AF92",
"z. c #54EA5AFEA324",
"x. c #4A4055DBB8FF",
"c. c #684B5EA9AC59",
"v. c #7CD97D92A1E5",
"b. c #60E96881B79F",
"n. c #6A8B763DB958",
"m. c #00001917C4DE",
"M. c #000019DECEC6",
"N. c #00001C3CD5EC",
"B. c #005F20FFDB83",
"V. c #07072E7FCBAA",
"C. c #26143B2DC40B",
"Z. c #00001EEFE85D",
"A. c #00002179EA26",
"S. c #1D184B66DB78",
"D. c #34A748B7CA63",
"F. c #3F7B50E8C821",
"G. c #361E4C42D22F",
"H. c #24145976D356",
"J. c #429C54E7CD63",
"K. c #464C5B22D853",
"L. c #523C643BD573",
"P. c #558568D7DCA7",
"I. c #57B565B5C343",
"U. c #65546E69C22B",
"Y. c #66CA761BCE25",
"T. c #71C67D14C6B7",
"R. c #643B7609DC79",
"E. c #59196E10E50B",
"W. c #57846BB2E124",
"Q. c #664F795AE529",
"!. c #69D37DC5EB30",
"~. c #6B937EF4E702",
"^. c #697598B991BF",
"/. c #675AA41D9239",
"(. c #79B980E8BC2B",
"). c #75809672A77B",
"_. c #7CEBD12982A1",
"`. c #7AD98658C93C",
"'. c #7F9E8C40D08D",
"]. c #76098895EC9F",
"[. c #7B2D8E05F2CA",
"{. c #7ECD9235F684",
"}. c #84CB84CB84C1",
"|. c #8888867C8676",
" X c #8E348BE58B8B",
".X c #867586248D22",
"XX c #91A48D988CD1",
"oX c #8F2D94CD858B",
"OX c #93E591088D6B",
"+X c #8A1388709B3C",
"@X c #91588DCE90EA",
"#X c #952293FD93EE",
"$X c #9C619B699AFC",
"%X c #99F296399662",
"&X c #8691910B9938",
"*X c #A10A9D109B6D",
"=X c #842BAA179AE4",
"-X c #97EE9711A742",
";X c #89ED8F80BC77",
":X c #958698F7BA58",
">X c #886B8E72B2EC",
",X c #98E3BC65A020",
"<X c #8564ADD8B4A6",
"1X c #9BA4AF5FAF81",
"2X c #A408A3CEA3D4",
"3X c #ABF3ABEAABCA",
"4X c #A92BA724A96C",
"5X c #B0EFAF03ABA5",
"6X c #A496BBE9A895",
"7X c #A977A8D5B611",
"8X c #B489B45AB43C",
"9X c #B422BE54B2F5",
"0X c #B9A0B99FB801",
"qX c #BCADBC65BC18",
"wX c #B69FB738BA19",
"eX c #D07CAF11BC0C",
"rX c #C191BEB8BB3E",
"tX c #8CE0CA0898E6",
"yX c #8F3ECC1591DB",
"uX c #9A95CAB9A288",
"iX c #AA26C623AA90",
"pX c #AAC1CE4BB77C",
"aX c #B8D9C7A6BA16",
"sX c #C13EC0FCBEFF",
"dX c #8E519B3AD8BC",
"fX c #AE6CB0CDC101",
"gX c #B641BC2FDA42",
"hX c #B01FB2D0C540",
"jX c #8AC59BB9F6C1",
"kX c #8D219F14FB64",
"lX c #83C593D8EB82",
"zX c #9751A58BEE8B",
"xX c #9B70AC51FD65",
"cX c #AA6CBD57EC31",
"vX c #AA06B6D5E542",
"bX c #A95FB9D9FFA5",
"nX c #C2EFBF9BC180",
"mX c #BE1CCE1DC090",
"MX c #BD25D164C370",
"NX c #ABD5C355FFFF",
"BX c #B801CBB9FD17",
"VX c #C47EC3DAC40D",
"CX c #C880C4A0C689",
"ZX c #C769C7F1CB3B",
"AX c #C6C5CE87CA43",
"SX c #CC92CC80CC68",
"DX c #C3EBC62BD2CC",
"FX c #C98BD498D0E7",
"GX c #D427D43ED413",
"HX c #DA23D63DDA3C",
"JX c #DAD7DB93DBF5",
"KX c #D5F8D961DAD6",
"LX c #DB61C659C697",
"PX c #DBBFDD75E599",
"IX c #F8D7F7A2F912",
"UX c None",
/* pixels */
"UXUXUXUXUXUXUXUXUXUXUXUXUXUXUXUXUXUXUXUXUXUXUXUXUXUXUXUXUXUXUXUX",
"UXUXUXUX0X9X9XaXVXCXCXUXUXUXUXUXUXUXUXUXUXUXUXUXUXUXl.UXUXUXUXUX",
"UXUXUXUX9X^ ! ^ _.yXtXiXaXmXAXGXHXHXHXUXUXUXUXUXUXc.UXUXUXUXUXUX",
"UXUXUXUXiXQ E E E E W Y T R ! ~ _.yXuXpXMXFXKXLX, eXIXIXUXUXUXUX",
"UXUXUXnX6XT E E E E E U I P z x l g g k c L D : ; tXpXJXSX2XUXUX",
"UXUXUXCX,XT E E E E E I z z x l g h d s a 0   * 6 8 t 6XnX$XUXUX",
"UXUXUXCX=XY E E U L N b C V B g h s s a 8 i & 4 9 9 r AXSX$XUXUX",
"UXUXUXVXg.F b Z + r.7.V.B.A.H.L s a a 8 e % p 9 9 < ^.PXVXUXUXUX",
"UXUXUXqXz.x...:.1.2.m.N.B.Z.S.N a 0 8 q * - 7 5 3 /.cXJXwXUXUXUX",
"UXUXUX7Xp.b.6.:.>.1.m.M.N.V.A s 0 0 7 p = 1 2 m <XBXcXKX3XUXUXUX",
"UXUXUX7Xp.b.u. .:.>.1.7.y.M w 0 0 6 u > H G ).vXBXNXcXGX3XUXUXUX",
"UXUXUX-Xt.l.k...| :.X K d f t C /.<X1X;XdXdXzXbXbXxXvXGX4XUXUXUX",
"UXUXrXv.-.k.k.$.} :.+.v y j j M J 1X>X`.'.zXxXxXxXkXvXSX2XUXUXUX",
"UXUXqXf.=.j.u.q.}  .:.:.@.o k h S &Xn.`.lXjXjXjXkX{.gXCX2XUXUXUX",
"UXUX0Xs.*.-.=.=.o.}  .:.@.B K @ > f.Y.].].].[.[.[.].gXsX$XUXUXUX",
"UXUX8Xp.&.*.&.#.o.} }  .+.n n . O I.R.Q.Q.!.!.!.!.~.DXqXUXUXUXUX",
"UXUX4X%.#.#.[ [ ' _ } }  . .@.X.e.L.L.P.P.W.E.E.E.R.DX0XUXUXUXUX",
"UXUX-X{ ' [ ' ` ` ) _ } |  .:.>.0.F.J.J.K.K.K.K.K.R.ZX8XUXUXUXUX",
"UXUX+X;.] ` ) ( ( ( ) _ } }  .:.4.e.i.D.D.D.G.G.G.Y.ZX3XUXUXUXUX",
"UX%X#X.Xd.f.a.-.O.' ) ) _ _ }  .<.5.w.e.e.e.C.C.C.T.CX3XUXUXUXUX",
"UXUXXXOXoXOX*X2X-X+Xg.a.-.*... . .<.4.4.4.9.8.8.8.`.VX3XUXUXUXUX",
"UXUXUXUXUXUX#X%X$X$X%X#X@X+Xh.f.z.u.e.5.,.,.,.,.3.;XsX4XUXUXUXUX",
"UXUXUXUXUXUXUXUXUXUXXXXXXX XXXXXOX%X-X:X(.U.x.e.w.:XqX4XUXUXUXUX",
"UXUXUXUXUXUXUXUXUXUXUXUX%X#X|.|.|.XX$X4X5X8XwXfXfXhXwXUXUXUXUXUX",
"UXUXUXUXUXUXUXUXUXUX2X2X2X$X#X}.$ # # / #X2X8X0XqXqX8XUXUXUXUXUX",
"UXUXUXUXUXUXUXUX8X8X8X8XwX8X8X3X2X#X}.# # }.$X3X4X3X2XUXUXUXUXUX",
"UXUXUXUXUXUXUX8X8XwXqXqXVXZXSXZXVX0X8X2X#X X#X$X%XUXUXUXUXUXUXUX",
"UXUXUXUXUXUXUX8XwXqXqXVXSXGXHXGXZXCXVX0X8X2X%X#X$XUXUXUXUXUXUXUX",
"UXUXUXUXUXUXUX8XqXqXVXSXGXJXJXHXSXSXSXVXqX8X4X2X#XUXUXUXUXUXUXUX",
"UXUXUXUXUXUXUXUXqXVXZXSXGXJXJXHXSXGXJXVXqXqX3X4XUXUXUXUXUXUXUXUX",
"UXUXUXUXUXUXUXUXUX0XZXGXHXJXJXHXGXGXJXSXqX0X3XUXUXUXUXUXUXUXUXUX",
"UXUXUXUXUXUXUXUXUXUXUXUXCXSXGXGXSXCXVXwX3XUXUXUXUXUXUXUXUXUXUXUX"
};
