/* XPM */
static char *home16[] = {
/* columns rows colors chars-per-pixel */
"16 16 14 1",
"  c #8441B3672E15",
". c #7752B85D37C0",
"X c #7812B1272B87",
"o c #8603BFAB4BBF",
"O c #8B8EC9CB494F",
"+ c #900FAFD71FA6",
"@ c #9F56C663598B",
"# c #AB97D138698F",
"$ c #747CAE8B2D85",
"% c #9076C3084FE2",
"& c #A883CD23599C",
"* c None",
"= c #CE7FED49A471",
"- c #BBABE2E3905A",
/* pixels */
"****************",
"********$*******",
"*****.OooXO.$***",
"****OoooXXXX&$**",
"***XXX#O ++++=**",
"**%Ooo%**$ ++-$*",
"**..X$*****X@-=*",
"**$O@##O###--o&*",
"**%+O%%&%%&&%%$*",
"**.+O******=OO%*",
"**O++&****&@oo$*",
"** @@+ %$=#@o.**",
"**$ +@XXX+XXX$**",
"***$.O++XXX.****",
"****$$%. %$*****",
"****************"
};
