/* XPM */
static char *upload_xpm[] = {
/* columns rows colors chars-per-pixel */
"16 16 176 2",
"   c #0F077C3219C5",
".  c #18DA73E125C9",
"X  c #1C612BB0732E",
"o  c #1E002B957884",
"O  c #2AB647B84D8C",
"+  c #367848445AC2",
"@  c #1FB9424D6BA3",
"#  c #22D94FCA6AD1",
"$  c #260D56F26E4D",
"%  c #241A4B6B78D3",
"&  c #365249777709",
"*  c #3656583B7C3F",
"=  c #272069646BC1",
"-  c #387C6B136A64",
";  c #539059D45D50",
":  c #5126783267F1",
">  c #23CB98C73BD5",
",  c #2FFFB9643311",
"<  c #47EFD00A30E2",
"1  c #49AECA9339B0",
"2  c #39AFADC55653",
"3  c #3769B0585600",
"4  c #4651820A4D2F",
"5  c #405D94504616",
"6  c #5F228A586D37",
"7  c #546C82387423",
"8  c #6DC1825B7D93",
"9  c #6C14B42A79B5",
"0  c #48BAC4ED4E54",
"q  c #60A3D0F360EA",
"w  c #86AAD74F7591",
"e  c #07070FE889E2",
"r  c #17AE1E518BC1",
"t  c #00080C5F933C",
"y  c #094615F594FF",
"u  c #05A715BD9F66",
"i  c #20A42FA78184",
"p  c #2541362A823C",
"a  c #2485305F88CA",
"s  c #222C2A8A9727",
"d  c #36BA3DDC9966",
"f  c #00000F9BA1BB",
"g  c #0000118EA217",
"h  c #0812158AA626",
"j  c #00001470AC87",
"k  c #0000153FB017",
"l  c #027518EEB39C",
"z  c #000018B2BC30",
"x  c #1347225EA7C9",
"c  c #1A332D75B838",
"v  c #2A6E36D1A6C8",
"b  c #2EF73A42A9BB",
"n  c #36F13FA0A56E",
"m  c #25D03687B3FA",
"M  c #20E6330DB8E2",
"N  c #3EE64E738F80",
"B  c #374C44D390F4",
"V  c #3FA5425E90F1",
"C  c #2CF453F09484",
"Z  c #2B9971A58CDA",
"A  c #2E996DE7A0C7",
"S  c #44A84AF79979",
"D  c #4FA652A29306",
"F  c #5F4D684B9F92",
"G  c #69B86C6C96BA",
"H  c #74857AEC951F",
"J  c #47EB5507ADAB",
"K  c #41D6510DBDAA",
"L  c #72127BFEAEE1",
"P  c #00001837C2AB",
"I  c #00001AB4C565",
"U  c #00001EADD739",
"Y  c #00001F91DE4D",
"T  c #09D52417C599",
"R  c #1B293982E000",
"E  c #3D16500ECB12",
"W  c #3F46542CD32E",
"Q  c #3BD35964F218",
"!  c #455C58C1D262",
"~  c #4B7061A1C076",
"^  c #5C4272BBCD03",
"/  c #55DE6885D5D0",
"(  c #6A517CA6E43E",
")  c #6C107F82EA6A",
"_  c #62E87AE8F73C",
"`  c #35EC811CB41A",
"'  c #49BD85D09FD7",
"]  c #67B1946C8D63",
"[  c #5ED48A19B85A",
"{  c #60F99B5DAAB2",
"}  c #6F32858EB795",
"|  c #7F5A85A3B703",
" . c #6C76940EBFB1",
".. c #6A24AEDCA98C",
"X. c #64B3D7E5B271",
"o. c #36C98681C729",
"O. c #46689B55CF87",
"+. c #5EDA9CE8D4D0",
"@. c #68C79F3ECDD5",
"#. c #4031B2AAD9B1",
"$. c #6839AD7EC470",
"%. c #648AAA47D278",
"&. c #735CAC3FD65B",
"*. c #6D0BBECCDF15",
"=. c #7097825CE718",
"-. c #74768739EB3D",
";. c #705AC372DD98",
":. c #520BC96AE79B",
">. c #61C1C756E97A",
",. c #72EDEB1BF94D",
"<. c #8543838F8126",
"1. c #89478947894B",
"2. c #8BD18AFD94E4",
"3. c #960D95A393E2",
"4. c #958993DE94EB",
"5. c #9EE69E639BA8",
"6. c #8A198CA6A66F",
"7. c #87BD8DDEBEDF",
"8. c #A85CA835A778",
"9. c #AA3DA9EFA784",
"0. c #AD3FAD42AD47",
"q. c #AE7BAE4AAE16",
"w. c #A6BFB9DDBF8E",
"e. c #B402B45CB7EE",
"r. c #B6FFB6FFB6FF",
"t. c #B75AB76BB76E",
"y. c #B0C2B220BC25",
"u. c #B8E6B8F7B8CD",
"i. c #945BD01096B4",
"p. c #9B09E449830A",
"a. c #88BDD62DA4EC",
"s. c #A602C3EFA779",
"d. c #A914D577BC2C",
"f. c #C838ECF6B9B5",
"g. c #836D9437D2B3",
"h. c #907FBC36D084",
"j. c #AF38B236C37E",
"k. c #B0B4B513CBB0",
"l. c #B556BB1CD621",
"z. c #9442A3A0F457",
"x. c #95C0A64AF928",
"c. c #962EA75BFA4E",
"v. c #9EC5AE13F9A3",
"b. c #9476DDD9C718",
"n. c #BD07CD6ECED1",
"m. c #BD20C5C1DDE0",
"M. c #B588D327D247",
"N. c #B97EF307DCDE",
"B. c #8A8FDFD6E87F",
"V. c #973FDDC7E744",
"C. c #B749C585FEA4",
"Z. c #B702C913FF91",
"A. c #B8DBC90EFFAA",
"S. c #8244F015FA1E",
"D. c #BCB7F090EF4D",
"F. c #C11DC11DC11D",
"G. c #C349C34CC34D",
"H. c #C51FC4F1C46B",
"J. c #C909C909C909",
"K. c #CDE2CDE2CDE2",
"L. c #D03CD03CD03C",
"P. c #D0AED0B0D0B0",
"I. c #D32BD32BD32B",
"U. c #D89ED89ED89E",
"Y. c #C948F832DF84",
"T. c #C956D26BE73A",
"R. c #D349DB4AED0F",
"E. c #C842D2F6FFDF",
"W. c #D162DD1BF765",
"Q. c #D13BDBB3FC05",
"!. c #D0FFDCB0F8CA",
"~. c #D278DDD1FFFF",
"^. c #D570DDBAFE64",
"/. c #D3ACE115FFFF",
"(. c #D497E0F6FFFF",
"). c None",
/* pixels */
").).).).i.d.M.&.$.).).).).).).).",
").).0 q a.b.V.*.%...).).).).).).",
").2 1 w f.N.,.>.+.{ 9 ).).).).).",
")., < p.Y.D.B.;.@.[ ] 7 ).).).).",
"$ > 3 X.S.h.J ~ ^ g.w.s.n.).).).",
"@ = ` #.:. .h P Y _ ^.Q.!.W.R.H.",
"X # A o.O.} x z U Q E.~.(./.T.).",
"o i C Z ' L b j I R v.C.A.Z.m.).",
"p a %   5 F n u k T =.z.x.c.l.).",
").B * . 4 S s y g l ! ( ) -.k.).",
").).N - 6 V r e t f M E W / j.).",
").).).& : 8 H G D d v m c K y.).",
").).).).).O + ; <.4.2.6.| 7.e.).",
").).).).).).).q.t.u.8.3.5.9.).).",
").).).).).).).F.K.U.P.G.0.1.).).",
").).).).).).).).L.U.I.J.r.).).)."
};
