/* XPM */
static char *login16[] = {
/* columns rows colors chars-per-pixel */
"16 16 14 1",
"  c #789575EE7153",
". c #419698121C84",
"X c #5CF782EC4D58",
"o c #83007DAF7C8F",
"O c #3A2B9A0D128F",
"+ c #51AFB23F21E7",
"@ c #7506AED3533B",
"# c #85F9C9AA4EA2",
"$ c #8AB78E8A7BC6",
"% c #9CD798C496C2",
"& c #6B9488285B51",
"* c #A822A4B6A44E",
"= c None",
"- c #6881A7554956",
/* pixels */
"====&oo*&=======",
"===& oo$%=======",
"===*ooo%%*======",
"===&oo%%%*======",
"===&o %%%&======",
"==== o$$%&======",
"====*oo%%=&#&===",
"====*%oo%&-@.===",
"===*o   %%@@-===",
"==*%o   @$@+@##-",
"=*%%ooo #++++O+.",
"=*%%ooo OOO+OOO-",
"=X%ooooo X.O.&&=",
"= ooooo X&-O.===",
"=&X XXX&&=&O.===",
"===========&===="
};
