/* XPM */
static char *logoff16[] = {
/* columns rows colors chars-per-pixel */
"16 16 14 1",
"  c #7A76742E72E1",
". c #A62D24731ADC",
"X c #881F785F7765",
"o c #B0971BD41452",
"O c #E1A22FB410C3",
"+ c #D227519337C6",
"@ c #850A7AEB7927",
"# c #C7D253874CC5",
"$ c #90FA82D07F9D",
"% c #9C54981595D5",
"& c #8B354E4B4D3C",
"* c #A822A4B6A44E",
"= c None",
"- c #D6BC5682373A",
/* pixels */
"====*X X========",
"===& @@%%&======",
"===*@@@%%*======",
"===*@ %%%*======",
"===&@ %%%*======",
"====X@$%%&======",
"====*@$%%*====&=",
"====X% $%#.==.o&",
"===*$   #++X#Oo.",
"==*%@   ##++Ooo&",
"=*%%@@@@%#+OOo&=",
"=X%%@@@@$+O+OO.=",
"=X%%$@@@OOOoOOO-",
"=X@     oOo-.oO.",
"=&XXXX*&&o-==..=",
"===&=========&=="
};
