/* XPM */
static char *update16[] = {
/* columns rows colors chars-per-pixel */
"16 16 14 1",
"  c #17BF6EDA29D0",
". c #2D7CA0DE30E0",
"X c #C1BDC13CC1BA",
"o c #15115B682AD1",
"O c #1E2391342D9A",
"+ c #4F2FBD4045D8",
"@ c #4F68BC2C49B6",
"# c #7A80D489619C",
"$ c #8930D8A0719E",
"% c #AA01E6299228",
"& c #699FB52063C8",
"* c #6163BB9B5489",
"= c #B4A2D437A7CD",
"- c None",
/* pixels */
"---&&-----------",
"-*o  O.&--------",
"-.   O@#$=&-----",
"-o   O@#%%%#+.--",
"-.   O@#%%%#$&--",
"-. o. @#%%$*----",
"-.&---&*&-------",
"-X&-------------",
"-X&-------------",
"-=--------------",
"-X&-------------",
"-=--------------",
"-&--------------",
"-&--------------",
"----------------",
"----------------"
};
