/* XPM */
static char *post_xpm[] = {
/* columns rows colors chars-per-pixel */
"16 16 136 2",
"   c #0E8E0FF11269",
".  c #1020119A152E",
"X  c #18A61A601CE6",
"o  c #1B581D402015",
"O  c #234F26DE2CEA",
"+  c #3C6C3E003FE8",
"@  c #B323973B30B3",
"#  c #B8A09FC84808",
"$  c #D100BA82458F",
"%  c #D24FBD0F4803",
"&  c #CEBDBD1C73E1",
"*  c #E02FC6C24E4A",
"=  c #E538CB204507",
"-  c #E479C88F4766",
";  c #E5D1CBEA46E1",
":  c #E615CC4C47C6",
">  c #E68FCCDD489C",
",  c #E6F5CD4549D1",
"<  c #E6F9CE064AC5",
"1  c #E75DCF034BBE",
"2  c #E411CA4C4E42",
"3  c #E5C9CB7B4C81",
"4  c #E336CC714DE1",
"5  c #E7C8CFC24D34",
"6  c #E9B8CEFC4BC4",
"7  c #EA15CFB24D32",
"8  c #EA43D00D4DEA",
"9  c #E848D0A64EA0",
"0  c #EAB2D0D04F40",
"q  c #E31FCA1851E0",
"w  c #E834D03B5621",
"e  c #E905CD11513E",
"r  c #E908CF315539",
"t  c #EA3BCFC65718",
"y  c #EB23D18150EF",
"u  c #EB6FD2DD5361",
"i  c #EB2DD3B65640",
"p  c #EC0BD31758B0",
"a  c #D773CA1B668B",
"s  c #E740D5376379",
"d  c #ED92D81A617E",
"f  c #ED5ED9756173",
"g  c #EB81DCBC6D29",
"h  c #EFBDDD5B6CD6",
"j  c #EE9EDF556C5C",
"k  c #F00FE02B6FF4",
"l  c #EDCADC3A7651",
"z  c #F06BE4527C73",
"x  c #F0B1E4EF7768",
"c  c #F072E4817BBA",
"v  c #F116E4EA7C9F",
"b  c #F13DE5F27C21",
"n  c #E466D7FE9643",
"m  c #ED4DE4DF861F",
"M  c #EE81E1D2892C",
"N  c #EF72E3E78B83",
"B  c #F06DE6318EB8",
"V  c #F247E6478001",
"C  c #F1C7E69F8314",
"Z  c #F213E76C853E",
"A  c #F248E9018159",
"S  c #F22BE9AD854D",
"D  c #F22DEA4F8776",
"F  c #F0C9E58E8A7C",
"G  c #F253EA588838",
"H  c #F2C2EAA9888C",
"J  c #F323EAB78986",
"K  c #F304E9478A76",
"L  c #F356EB248AB6",
"P  c #F34FEB128B1C",
"I  c #F353EBBB8CF0",
"U  c #F3B1EBF08D92",
"Y  c #F31BEC258E31",
"T  c #F403EBF88EAA",
"R  c #F3E2ECEE8F26",
"E  c #F0F4E78390ED",
"W  c #F2A1E9AF9342",
"Q  c #F448EC9B9256",
"!  c #F38CEDA69267",
"~  c #F476ECC692C1",
"^  c #F2E3EA6E9690",
"/  c #F353EC8997EB",
"(  c #F491ED0894BA",
")  c #F4B5EE4E969A",
"_  c #F4DEEEAD9688",
"`  c #F4B2EEF9971C",
"'  c #F4B7EF829805",
"]  c #F410EE0C9952",
"[  c #F460EF379AB6",
"{  c #F509EDE098B7",
"}  c #F4F8EDE099F1",
"|  c #F4D8F00E98A3",
" . c #F4FDF054991C",
".. c #F4CBEEEA9B17",
"X. c #F4C2EFC59BB4",
"o. c #F46AEE389CC1",
"O. c #F55BF0619CAD",
"+. c #F53CF0CB9A33",
"@. c #F594F0AA9DEF",
"#. c #EFEEE6BAA0BF",
"$. c #F5D8EF79A039",
"%. c #F5FAEFDDA181",
"&. c #F4C6EEECABEA",
"*. c #F59CF11AA67E",
"=. c #F5FEF200A6D2",
"-. c #F644F15BA786",
";. c #F6B4F311A81B",
":. c #F671F195AA0C",
">. c #F6B2F113A874",
",. c #F552EEF3BABB",
"<. c #F6C4F33BB1C4",
"1. c #F791F2ECB1D0",
"2. c #F7ABF427B1DA",
"3. c #F6D8F2E2B272",
"4. c #F6E8F379B29E",
"5. c #F84DF49DB98E",
"6. c #F7C5F485BB4C",
"7. c #F7FAF4E8BD97",
"8. c #F83EF52EBF8E",
"9. c #F897F4F5BAE5",
"0. c #F8A8F556BBC6",
"q. c #F8ADF5EFBB4C",
"w. c #F8A0F580BC8B",
"e. c #BBE4C15DC39D",
"r. c #C7B3CC1CCD70",
"t. c #C7ADCD80D02D",
"y. c #D156D554D4BA",
"u. c #F93AF60AC106",
"i. c #F903F60BC28B",
"p. c #F8D2F5E8C387",
"a. c #F982F6CCC3E3",
"s. c #F9A6F695C453",
"d. c #F9B9F6E3C788",
"f. c #F9C5F796C916",
"g. c #F9F3F7BCC99A",
"h. c None",
/* pixels */
"h.h.h.h.h.W E B N M h.h.h.h.h.h.",
"h.h.h.h.h.O.O.X.X.[ ] / F r - h.",
"h.h.h.h.h.) _ ` ' |  .+.K 6 = h.",
"h.h.h.h.h.} Q T U I U R C 7 ; h.",
"h.h.h.h.h.1.%.( U L H G z 8 : h.",
"h.h.h.h.h.d.9.>.{ T J D c 0 > h.",
"h.h.h.h.,.f.g.u.1.$.~ P v y , h.",
"h.h.h.h.&.q.a.d.s.5.:...Z u < h.",
"h.h.h.h.o.;.2.0.i.p.7.4.^ i 1 h.",
"h.h.h.l K _ @.=.<.6.8.8.#.w 5 h.",
"h.h.h.t h V P ! [ *.3.w.n q 9 h.",
"h.y.h.h.e d k b S Y ] -.& * 4 h.",
"h.h.t.r.h.h.p f j x A m # 2 % h.",
"h.h.h.h.e.+ h.h.h.s g a @ 3 $ h.",
"h.h.h.h.h.X   . h.h.h.h.h.h.h.h.",
"h.h.h.h.h.h.h.O o h.h.h.h.h.h.h."
};
