/* XPM */
static char *help16[] = {
/* columns rows colors chars-per-pixel */
"16 16 12 1",
"  c #B073A7BC8FFA",
". c #FF0DC22B4398",
"X c #E155C4C080AE",
"o c #FE25D8017222",
"O c #FDC7DBB67A14",
"+ c #C533C27AB997",
"@ c #FE11EC12A670",
"# c #FC7BF480CD17",
"$ c #C547B6037899",
"% c #FAF9B5932ECC",
"& c #FFB1CE1052BB",
"* c None",
/* pixels */
"****************",
"******$%%$******",
"****%.oOOo&$****",
"****.OO###@.****",
"***&OO@####O&***",
"**$.@@@###@O.***",
"***.O@@###@@.***",
"***.@@####@@.***",
"***%o@@###@o%***",
"***$&O###@O.$***",
"****$.#@@@.%****",
"*****&O##O.*****",
"****$$X##X%*****",
"****$& ++ &$****",
"****$&$  $$$****",
"******$$*$******"
};
