/* XPM */
static char *logo16_xpm[] = {
/* columns rows colors chars-per-pixel */
"16 16 169 2",
"   c #62BB7EA723EC",
".  c #17415D9D7E36",
"X  c #0924A8B10AE5",
"o  c #2CB3A6111323",
"O  c #1E1CB0F22D49",
"+  c #26DEA07428AC",
"@  c #2A9DB8DA3AC3",
"#  c #376DBFF037B0",
"$  c #49118D8D14D8",
"%  c #487193B118E4",
"&  c #1156C2180B83",
"*  c #1172C1DC1163",
"=  c #1D66C99E1BDD",
"-  c #2E06C8D630DB",
";  c #303ACF4A3396",
":  c #34E5D50438AD",
">  c #194388DA575D",
",  c #28688A2D58FD",
"<  c #1AF5A46946E3",
"1  c #356AADB65A66",
"2  c #2A078F7A6A9D",
"3  c #20E2950B6A7C",
"4  c #2789A27567EC",
"5  c #7C928B64462E",
"6  c #5CF1A5BE456E",
"7  c #43D2B1D35760",
"8  c #764898367D0B",
"9  c #3B10D773407F",
"0  c #4234DF33463A",
"q  c #460FE3F34A15",
"w  c #457AE4A44AD2",
"e  c #5FEFDA81654E",
"r  c #69C0D79D6EC5",
"t  c #791CCF607E56",
"y  c #7574D5BE79E7",
"u  c #04790EBB88CC",
"i  c #073611258A4A",
"p  c #0E1B16278A16",
"a  c #109E18268BC8",
"s  c #15F11CB9889E",
"d  c #00000D6191A7",
"f  c #00730D0B92EC",
"g  c #00540E079DC0",
"h  c #00000CB89EFB",
"j  c #086614FB937B",
"k  c #0306125799D9",
"l  c #01C2183E986A",
"z  c #099A3E0A85EB",
"x  c #046021869CE5",
"c  c #128127D99E97",
"v  c #2C4D310C8BE7",
"b  c #259E2DF6974E",
"n  c #2A82319A969C",
"m  c #000010CEA262",
"M  c #0000153CB0C4",
"N  c #17BF2868AF18",
"B  c #0F4821C8B1DB",
"V  c #18722938B0C6",
"C  c #265131A9A44E",
"Z  c #25183373AE41",
"A  c #31663B22A214",
"S  c #2FDD3A56A3D2",
"D  c #293A3B7BBC06",
"F  c #1030540A8840",
"G  c #1B826DC98729",
"H  c #13625BD1A3F3",
"J  c #326A4657BF6B",
"K  c #418E45C08A26",
"L  c #3FDA45F1991C",
"P  c #41CB48229FF5",
"I  c #58EF5B2C93F4",
"U  c #599E5B8E97CC",
"Y  c #57516B1D94A8",
"T  c #71B271AB8FFB",
"R  c #72D672259441",
"E  c #557F5B3CA8D6",
"W  c #51A35DA7B965",
"Q  c #57E361F6A84F",
"!  c #73CE755EA2C1",
"~  c #7076782CBB44",
"^  c #00001668CC38",
"/  c #05E72B18D5B1",
"(  c #2C413FD4C36B",
")  c #2CAE420BC991",
"_  c #4CAC5F51D4FE",
"`  c #55D8661DCB59",
"'  c #4E406258DAE1",
"]  c #4F9264C6DFD4",
"[  c #638175D6DDEC",
"{  c #68337876DB2B",
"}  c #784B93E39F96",
"|  c #63C8A62A8535",
" . c #6FE1A3638581",
".. c #6A2DAAF79169",
"X. c #7F888843C639",
"o. c #7035830DEB36",
"O. c #7249859BEEF9",
"+. c #78788ACEECD7",
"@. c #8117810D80F1",
"#. c #83F2834181CD",
"$. c #8D878AAD8A8B",
"%. c #8B1B89128FD7",
"&. c #8F8B8F208EA3",
"*. c #912290408DC0",
"=. c #930691E38D4B",
"-. c #94C391CA8E15",
";. c #8A7088849A58",
":. c #95C993239088",
">. c #95B2926298F6",
",. c #992A99299923",
"<. c #9CFD9D019D02",
"1. c #B27186A89F52",
"2. c #868FB588948C",
"3. c #841384C3A701",
"4. c #90789150A55F",
"5. c #9837980DAFCD",
"6. c #87648B67B3F6",
"7. c #88B98E30BE00",
"8. c #A06FA05DA04B",
"9. c #A6E2A6E3A6E3",
"0. c #ABFDAC0CAC0A",
"q. c #AD68ACF6AA1F",
"w. c #ADA8ADBEADBE",
"e. c #B02FBBD5AF32",
"r. c #B0FFB037AD97",
"t. c #A742A708B6B8",
"y. c #B09BB0A3B0A4",
"u. c #B4C7B49AB326",
"i. c #B4ACB49BB41D",
"p. c #B57AB499B385",
"a. c #B644B644B644",
"s. c #B7C6B7C6B7C6",
"d. c #B70FB73AB854",
"f. c #B55BB654BC64",
"g. c #BA3FBA3FBA3F",
"h. c #BDE4BBA8BE05",
"j. c #BE39BE39BE39",
"k. c #C014C014C014",
"l. c #8BDCCB758DDC",
"z. c #8213D4F186DD",
"x. c #9420C6F29C3A",
"c. c #8E4FD361921D",
"v. c #9B2FD1D09FEC",
"b. c #AD3EC264AD2E",
"n. c #A856D03AACE0",
"m. c #B72CD416BE11",
"M. c #C991C0FFB8CD",
"N. c #8DE1AA7BD28A",
"B. c #B61BB829C401",
"V. c #B588B8DACA37",
"C. c #B6B3BB87D39C",
"Z. c #87FF9677E9FD",
"A. c #9086A1B0F965",
"S. c #93DDA39BFB06",
"D. c #A9D7BC01FCA2",
"F. c #BC8FC411DCD2",
"G. c #BBDDC6FCDD2A",
"H. c #C158C15EC15E",
"J. c #C828C828C828",
"K. c #C8A6C8A6C8A6",
"L. c #CA3FCA3FCA3F",
"P. c #CBB3CBB3CBB3",
"I. c #CEE8CEE8CEE9",
"U. c #D15ED15ED15E",
"Y. c #D389D389D389",
"T. c #D5A9D5A9D5A9",
"R. c #D7A6D7A6D7A6",
"E. c #D98FD98FD98F",
"W. c None",
/* pixels */
"W.W.e.b.W.W.W.W.W.W.W.W.W.W.W.W.",
"W.W.l.e r y z.c.v.n.m.M.1.W.W.W.",
"W.W.t w q 0 9 : ; - # 5 6 x.h.W.",
"W.W.| 1 2 G H 4 = * % $ X 2.h.W.",
"W.t.Q c M ^ / 3 & o   + ..G.p.W.",
"W.5.E C m F < O 7 8 } N.D.F.r.W.",
"W.3.P A k z > @  .X.Z.S.A.C.W.W.",
"W.! n b j h . , Y { o.O.+.V.W.W.",
"W.U a p u d l x J _ ' ] [ B.W.W.",
"W.T K v s i f g N D ( ) ` f.W.W.",
"W.W.=.>.;.R I L S Z V B W d.W.W.",
"W.W.W.W.W.-.:.$.%.4.6.~ 7.i.W.W.",
"W.W.W.W.w.w.0.8.&.#.*.q.u.W.W.W.",
"W.W.W.W.s.k.P.I.H.y.<.,.@.W.W.W.",
"W.W.W.W.j.L.R.E.U.P.g.9.W.W.W.W.",
"W.W.W.W.W.J.Y.T.I.K.a.W.W.W.W.W."
};
