/* XPM */
static char * star2_xpm[] = {
"16 16 56 1",
" 	c None",
".	c #F26CFE",
"+	c #D157D9",
"@	c #F971F1",
"#	c #F773EC",
"$	c #F567F7",
"%	c #F876E1",
"&	c #F87ADF",
"*	c #D94FD7",
"=	c #E658EC",
"-	c #F864F6",
";	c #F65CED",
">	c #F656EC",
",	c #F563E2",
"'	c #F571D7",
")	c #F565DF",
"!	c #F454E3",
"~	c #F353E6",
"{	c #F75BEA",
"]	c #E048DA",
"^	c #E246DC",
"/	c #F45ED9",
"(	c #F165D2",
"_	c #F264D3",
":	c #F45ED6",
"<	c #D83CC7",
"[	c #732970",
"}	c #D63CC9",
"|	c #F050D0",
"1	c #EF57CD",
"2	c #EF55CC",
"3	c #F054CD",
"4	c #CE36BB",
"5	c #ED39D6",
"6	c #ED47C8",
"7	c #E939CE",
"8	c #7B2174",
"9	c #EC2ECF",
"0	c #EA3AC2",
"a	c #EC38C4",
"b	c #EA30C9",
"c	c #EA26C7",
"d	c #E929C2",
"e	c #CD1DB2",
"f	c #CA1AAF",
"g	c #E725C0",
"h	c #EB27C4",
"i	c #B22A9D",
"j	c #F036D8",
"k	c #D818BB",
"l	c #931780",
"m	c #B2389F",
"n	c #D818B6",
"o	c #BD0F9E",
"p	c #A82694",
"q	c #7C0266",
"                ",
"                ",
"                ",
"       .+       ",
"       @#       ",
"      $%&*      ",
"  =-;>,'')!~{]  ",
"   ^/((__((:<[  ",
"    }|1223|4    ",
"     5666678    ",
"     90aa0b     ",
"     cdefghi    ",
"    jkl  mno    ",
"    p      q    ",
"                ",
"                "};
