/* XPM */
static char *set16[] = {
/* columns rows colors chars-per-pixel */
"16 16 9 1",
"  c #8A528B088BC2",
". c #8BF78C7E8D02",
"X c #AFA5B07BB156",
"o c #BF8AC02DC0D8",
"O c #D505D5FDD6F7",
"+ c #CBABCC9CCD90",
"@ c #8C108C8C8D0B",
"# c #C196C28DC3AB",
"$ c None",
/* pixels */
"$$$$+#$$$$$$$$$$",
"$@@#O+@@@$$$$$$$",
"$XooOOXo.$$$$$$$",
"@ o+. XX.$$$$$$$",
"$@X.$@X $$$$$$$$",
"$+XX++XX.#@$$$$$",
"@+XXOoooXO+@.@$$",
"$@@@O++OOOOOo.$$",
"$$$$+..OOoXoo.$$",
"$$$$@#+o.@@.X .$",
"$$$$$XXX@$$@   $",
"$$$$@.XoX##XX .$",
"$$$$$$XOOooXX.$$",
"$$$$$@XXXOo X $$",
"$$$$$$.@$o+@#@$$",
"$$$$$$$$$.@$$$$$"
};
