/* XPM */
static char *post32_xpm[] = {
/* columns rows colors chars-per-pixel */
"32 32 97 2",
"   c #03B903F20460",
".  c #0D910D800D58",
"X  c #0C370D900FD7",
"o  c #0E080FCA12C2",
"O  c #12DB137B13D7",
"+  c #179A1A491EDD",
"@  c #1AC11D1A20E9",
"#  c #1D271FCF2414",
"$  c #21B421B821B5",
"%  c #25DF2A243180",
"&  c #30B735EA3EA5",
"*  c #391E3A933A8E",
"=  c #84D56D921C76",
"-  c #92C77A692924",
";  c #9D317B4829BC",
":  c #9CDE88712E5D",
">  c #9F1F807B3750",
",  c #ADB289F02857",
"<  c #C500A1322B09",
"1  c #CD4CAC192C45",
"2  c #A47C8FA44284",
"3  c #B0D6963550D2",
"4  c #B9AAAB07560B",
"5  c #DE5FBD264684",
"6  c #C50AAE8A6B46",
"7  c #C5CAB7366AE9",
"8  c #DEA5C48A46BF",
"9  c #DF67C36F4D2D",
"0  c #D8CBC2FF59AE",
"q  c #E65FC6674643",
"w  c #E808CBF64535",
"e  c #E983CF4146EF",
"r  c #E352C6CF4E0B",
"t  c #E564CB374E5C",
"y  c #E95DCDDA4A3F",
"u  c #EA50D1B04D19",
"i  c #E30EC6604FF1",
"p  c #E5A6CBD352E1",
"a  c #EA50CF4F529B",
"s  c #EB57D4915328",
"d  c #E79BD2E75C67",
"f  c #ECB4D6005C4F",
"g  c #DE54D2DE6DEA",
"h  c #E0B6CD6B608A",
"j  c #E60FD4F3666E",
"k  c #E981D3A6656A",
"l  c #EE10DABD63C0",
"z  c #EE51DDD56B54",
"x  c #EFAFDEA372AF",
"c  c #EBB1DC067CA1",
"v  c #EFE5E22D6FA2",
"b  c #EFDBE1BB71FD",
"n  c #F012E2FF7969",
"m  c #F0A7E35F7551",
"M  c #F165E5F17BF2",
"N  c #997699BF94A5",
"B  c #A600AFAEBB73",
"V  c #ACD4B533BDE1",
"C  c #C029C075BA9A",
"Z  c #D645C42880C7",
"A  c #ED74DEE3829A",
"S  c #E4B9D64C8F85",
"D  c #E256D99B92C5",
"F  c #EEE6E351855E",
"G  c #EFDEE4A38CFA",
"H  c #F1F6E6788363",
"J  c #F226E9D5861B",
"K  c #F1EAE7558BDF",
"L  c #F359EB518BA0",
"P  c #ED33E255956A",
"I  c #F021E6379CBC",
"U  c #F13EE738926B",
"Y  c #F424ED0B9437",
"T  c #F4CAEF0B9B4B",
"R  c #F54AF0E39C4B",
"E  c #F5EDF000A31B",
"W  c #F331EC89AD45",
"Q  c #F5F5F16FA3EE",
"!  c #F6B3F291AC76",
"~  c #F560EDE7B96C",
"^  c #F76DF3AEB42A",
"/  c #F7EEF492BC59",
"(  c #F8DAF5BFBD65",
")  c #ACDDB6A9C211",
"_  c #BD04C4E4CB5D",
"`  c #C99FCACDC55B",
"'  c #C327CB79D27F",
"]  c #CE29D368D3DB",
"[  c #D1CCD6FED75A",
"{  c #D693D8A0D372",
"}  c #D5E8DB2BDB8B",
"|  c #DDC3DFF4DB46",
" . c #F611EFB0C177",
".. c #F7FAF487C138",
"X. c #F97DF6A1C4AA",
"o. c #FA02F7C9CA80",
"O. c None",
/* pixels */
"O.O.O.O.O.O.O.O.O.O.H c c c O.O.O.O.O.O.O.O.O.O.O.O.O.O.O.O.O.O.",
"O.O.O.O.O.O.O.O.O.Y T T T T Y U G G F A A c c O.O.O.O.O.O.O.O.O.",
"O.O.O.O.O.O.O.O.O.U R T T R R R R R R T T T Y U U F k d t O.O.O.",
"O.O.O.O.O.O.O.O.O.Y R R R T T T T T R R R R R R R K q w w O.O.O.",
"O.O.O.O.O.O.O.O.O.U T R R T T T T R R R R R T T R J w e e O.O.O.",
"O.O.O.O.O.O.O.O.O.K Y Y Y Y Y Y Y Y T T T T T T T J w e e O.O.O.",
"O.O.O.O.O.O.O.O.O.U T Y Y L L L L L L L L Y Y Y Y H y e e O.O.O.",
"O.O.O.O.O.O.O.O.O.T E T Y Y L L L L L L L L L L L n y e y O.O.O.",
"O.O.O.O.O.O.O.O.O.W ! Q T T Y L L L L L L J J J J n y y y O.O.O.",
"O.O.O.O.O.O.O.O.O.~ ( ^ ! E T Y Y L L L L J J J J n y u y O.O.O.",
"O.O.O.O.O.O.O.O.O. .o.X./ ! E T Y Y L L L J J J J n y u u O.O.O.",
"O.O.O.O.O.O.O.O.O. .o.o.X.( ^ ! E T Y L L L J J J n y u u O.O.O.",
"O.O.O.O.O.O.O.O.O...o.o.o.X.../ ! E T Y Y L L J J n y u u O.O.O.",
"O.O.O.O.O.O.O.O.O./ X.o.o.o.o.X.( ^ ! E T Y L L J M y u u O.O.O.",
"O.O.O.O.O.O.O.O.O.^ ( X.X.o.o.o.X.( / ^ Q T Y Y L M a u u O.O.O.",
"O.O.O.O.O.O.O.O.I ! ^ / ( X.X.X.X.X.../ ^ ! Q T Y H a u u O.O.O.",
"O.O.O.O.O.O.O.O.T Q ! ! ^ / ( X.X.X.X...( / ^ ! Q K s u u O.O.O.",
"O.O.O.O.O.O.O.O.Y R Q Q ! ! ^ / ( ..X.X...( / ^ ! U a s u O.O.O.",
"O.O.O.O.O.O.O.A L Y T R Q Q ! ! ^ / ( ......( / ^ P p s s O.O.O.",
"O.O.O.O.O.O.O.x H L Y Y T T R Q ! ! ^ / / ( ( ( ( S r s s O.O.O.",
"O.O.O.O.O.O.a l x M H L L Y Y T T Q ! ! ^ / / ( ( Z 9 s s O.O.O.",
"O.O.O.O.O.O.q a f z m M H J L L Y Y T E ! ^ ^ / / 6 9 s s O.O.O.",
"O.O.O.O.O.O.O.5 t f l z m M H J L L Y Y T E ! ^ W 3 9 s s O.O.O.",
"O.V [ | O.O.O.O.O.r a f l z b M M H J L L Y T Q D > r s s O.O.O.",
"O.O.O._ } { C O.O.O.O.r s f l z b m M M J J L Y 7 ; i s s O.O.O.",
"O.O.O.O.B ' ] ` ` O.O.O.O.i a f l z v m M M H F 2 , p s s : O.O.",
"O.O.O.O.O.O.V ' [ { N O.O.O.O.O.p d l z v m M g - < a s s : O.O.",
"O.O.O.O.O.O.O.O.) _ *   . $ O.O.O.O.O.0 h j z 4 = 1 r t 8 O.O.O.",
"O.O.O.O.O.O.O.O.O.O.@ X     . $ O.O.O.O.O.O.O.O.O.O.O.O.O.O.O.O.",
"O.O.O.O.O.O.O.O.O.O.O.O.@ + o   O O.O.O.O.O.O.O.O.O.O.O.O.O.O.O.",
"O.O.O.O.O.O.O.O.O.O.O.O.O.O.& % # O O.O.O.O.O.O.O.O.O.O.O.O.O.O.",
"O.O.O.O.O.O.O.O.O.O.O.O.O.O.O.O.O.O.O.O.O.O.O.O.O.O.O.O.O.O.O.O."
};
