/* XPM */
static char * star3_xpm[] = {
"16 16 55 1",
" 	c None",
".	c #B2D0FE",
"+	c #A6C0EA",
"@	c #B5C7FB",
"#	c #B6C6FA",
"$	c #AEC7FA",
"%	c #B7C1FB",
"&	c #B9C1FB",
"*	c #A3B9EB",
"=	c #A7C3F5",
"-	c #ADC5FB",
";	c #AABFFA",
">	c #A7BCF9",
",	c #ADBBF9",
"'	c #B5BBF9",
")	c #AFBBF9",
"!	c #A5B7F9",
"~	c #A4B8F8",
"{	c #AABDFA",
"]	c #A0B6EE",
"^	c #9EB5F0",
"/	c #ABB6F9",
"(	c #ADB4F7",
"_	c #ABB4F9",
":	c #98A9EA",
"<	c #768FCE",
"[	c #99ACE9",
"}	c #A3ADF7",
"|	c #A6AEF6",
"1	c #A6ADF6",
"2	c #A5ADF7",
"3	c #96A5E4",
"4	c #97A9F5",
"5	c #9FA7F5",
"6	c #97A6F3",
"7	c #6D86D7",
"8	c #91A2F5",
"9	c #99A1F3",
"0	c #97A0F5",
"a	c #93A0F3",
"b	c #8E9DF4",
"c	c #8F9BF3",
"d	c #8193ED",
"e	c #7C8FEE",
"f	c #8C98F2",
"g	c #8E9AF4",
"h	c #8494E2",
"i	c #95A8F7",
"j	c #7F92F1",
"k	c #657BE7",
"l	c #919EDD",
"m	c #7F8FF1",
"n	c #6B7EF3",
"o	c #7C8DE2",
"p	c #3854FC",
"                ",
"                ",
"                ",
"       .+       ",
"       @#       ",
"      $%&*      ",
"  =-;>,'')!~{]  ",
"   ^/((((((_:<  ",
"    [}|112}3    ",
"     4555567    ",
"     89009a     ",
"     bcdefgh    ",
"    ijk  lmn    ",
"    o      p    ",
"                ",
"                "};
