/* XPM */
static char *upload32_xpm[] = {
/* columns rows colors chars-per-pixel */
"32 32 256 2",
"   c #179235942EC1",
".  c #34B23522358F",
"X  c #085675F40D0C",
"o  c #1356734D1923",
"O  c #085F67521040",
"+  c #1BB2719B220B",
"@  c #2B777FE23F79",
"#  c #1ECA27734B77",
"$  c #1C69278F7824",
"%  c #1EFF3067772B",
"&  c #1A472ED16B76",
"*  c #220E33CA7D55",
"=  c #1FAC2B717DA7",
"-  c #25CD488E4C19",
";  c #1C3D62BD4DAA",
":  c #241277A44C5D",
">  c #32356BC958E3",
",  c #1E1C454B668E",
"<  c #33EA4E0D6AB8",
"1  c #2433588C6559",
"2  c #347043AB77D6",
"3  c #278451BA733D",
"4  c #3DE36B5275E3",
"5  c #2CA27356728B",
"6  c #504B55415A35",
"7  c #40B97A8F4CE9",
"8  c #3FF253166460",
"9  c #69D1685C67BB",
"0  c #7ABC7AAD7A90",
"q  c #11D586FF1668",
"w  c #193693241C34",
"e  c #2335BA4D1BF4",
"r  c #1ACE9D292423",
"t  c #25BD8A45385A",
"y  c #35B782E23A56",
"u  c #1F0CA87123BE",
"i  c #268FAD9F2E93",
"p  c #3452CA6027C8",
"a  c #39BBC49634D5",
"s  c #3F38D82A3026",
"d  c #4954CE0837C7",
"f  c #5960D3A03B35",
"g  c #4DB6D0DD3431",
"h  c #2BA989805B6C",
"j  c #31B18DB56C02",
"k  c #3784A13C676B",
"l  c #4E2595F85ED8",
"z  c #5D66ABF95A1D",
"x  c #4FE984A26633",
"c  c #77F998C6785F",
"v  c #6D288D097E1D",
"b  c #4364B7D165E7",
"n  c #69E8A55A63C5",
"m  c #52B6CD0F47D2",
"M  c #6DBED2D75B48",
"N  c #5D26C562662C",
"B  c #7141CE436AA8",
"V  c #8209BC6D6AB8",
"C  c #82D1E20257EA",
"Z  c #8D47D0F67551",
"A  c #024409FF87EB",
"S  c #0A8113438A30",
"D  c #124D1A3B8B46",
"F  c #004E0E0C93CC",
"G  c #004E0E719AA7",
"H  c #00CA10899D33",
"J  c #08A4145499E5",
"K  c #10AF1B5593AE",
"L  c #1CD724EE92F0",
"P  c #23FA2CEB8BE6",
"I  c #251B347D8747",
"U  c #24742AE29337",
"Y  c #297C346D9A93",
"T  c #34B33A3A9925",
"R  c #33083E768D23",
"E  c #0079120BA2E3",
"W  c #006F14B0ABCA",
"Q  c #0A551B6DA783",
"!  c #00001672B26B",
"~  c #002318F8BAB1",
"^  c #055E1B72B8E9",
"/  c #0CB91FA6AF12",
"(  c #186D2850AB10",
")  c #18A12B6CB435",
"_  c #1EB63147B652",
"`  c #2DFC39F7A9F9",
"'  c #24ED3799BBEA",
"]  c #326B3EB6B023",
"[  c #3DF74E188D4E",
"{  c #345349658D94",
"}  c #2F6C595E88D7",
"|  c #3E894D569138",
" . c #3B7043E79594",
".. c #2FBB509490BB",
"X. c #357C63B79623",
"o. c #38384FDBAA1D",
"O. c #2E9461C8BD36",
"+. c #30C06E08B75F",
"@. c #418A59158C2A",
"#. c #57195A8B9C2D",
"$. c #4642526794F7",
"%. c #74DF755B9D51",
"&. c #41A84854A329",
"*. c #54D35B67AB24",
"=. c #4E5B59A7BA02",
"-. c #4C2651C7A419",
";. c #5E76639AA6E6",
":. c #597E632AB804",
">. c #4F337658B549",
",. c #657A68FCA5A3",
"<. c #748B7872A5F8",
"1. c #6D5274B8B589",
"2. c #00AF1C59C440",
"3. c #00001D73CC80",
"4. c #00001F40D9DA",
"5. c #00002074D4CA",
"6. c #00002295DD95",
"7. c #12512D73D01D",
"8. c #21FB377FC678",
"9. c #00002283E515",
"0. c #04AE2A62ED99",
"q. c #11F2364BF21B",
"w. c #346C4805C84E",
"e. c #356C4B0DD3E9",
"r. c #2FFA706AC361",
"t. c #28CC48B0F343",
"y. c #48E75CC3D4B6",
"u. c #41045299C99D",
"i. c #538363B6CA0A",
"p. c #53527E4BC6E0",
"a. c #4D8562A8DD0D",
"s. c #58446B84DBA2",
"d. c #542E76AFCECD",
"f. c #56FD6EA6EBD4",
"g. c #64E878E9E6DF",
"h. c #3A438927BB7B",
"j. c #3A6890C8BAF4",
"k. c #5B568CE39756",
"l. c #5FCE91CA93A8",
"z. c #5FA8AA0D93DB",
"x. c #7051AD3983AC",
"c. c #53949547B11D",
"v. c #6FB38D43B840",
"b. c #6FAFB5CAAE18",
"n. c #7343CE749065",
"m. c #5140C4C2B82F",
"M. c #7D2AC4C1AD6C",
"N. c #3AAB9301C877",
"B. c #3AC4A242D486",
"V. c #397BAE03DF2B",
"C. c #5D249369CE6B",
"Z. c #4DE29516CFFF",
"A. c #62C7978FC422",
"S. c #5EEEA334D59D",
"D. c #420FB500D83A",
"F. c #68F0A8D2CDB3",
"G. c #61E1A50AD5EA",
"H. c #646CAA1BDA98",
"J. c #6AB4B4A7D0F2",
"K. c #748F8686EA1A",
"L. c #773E8B98F4E9",
"P. c #4361BAC8E197",
"I. c #5F66B998E0F7",
"U. c #6305BC76E309",
"Y. c #7632C577DD38",
"T. c #56B6D506EE2F",
"R. c #5275C700E965",
"E. c #6456D2E6EBA0",
"W. c #6A47E762F789",
"Q. c #77CFE69BF2D2",
"!. c #8CC08C668C2D",
"~. c #874183DF811B",
"^. c #87FF9496892A",
"/. c #91A491E98F13",
"(. c #83F586A8975C",
"). c #95F694FC94C4",
"_. c #996898899AAA",
"`. c #8B9898C190AD",
"'. c #A0519E819BE2",
"]. c #87818D22AAED",
"[. c #8A7198F4B5E1",
"{. c #95359B5FB720",
"}. c #82B18957B9C1",
"|. c #A18B9FB1A14C",
" X c #97FCA2D4BBBA",
".X c #A3C4A3FEA41E",
"XX c #AD90AD53ACBA",
"oX c #B527B4F3B437",
"OX c #BBC5BBA5BB37",
"+X c #A5BCACC9B96A",
"@X c #85E3CA1F8FE0",
"#X c #A829DD4B9C92",
"$X c #AAAAC98B8F0A",
"%X c #B824EF3A9C1E",
"&X c #9AD5DBE8A9AA",
"*X c #B279DAA9BE7B",
"=X c #AD5CD8D7B114",
"-X c #A486E2AEB773",
";X c #D8AAF202B489",
":X c #CC9DEC9FA8BA",
">X c #9D32ACA0C1A0",
",X c #8D4EB7D8D037",
"<X c #BB4BBCF4C70E",
"1X c #B600BCBDD929",
"2X c #A209AFECC4E1",
"3X c #87B5973EED7E",
"4X c #8B779C2EF4AC",
"5X c #8A949CB4F921",
"6X c #9D5DADCDFCDB",
"7X c #9C16AA45F57F",
"8X c #AE79B7DEE4DD",
"9X c #B38FBF69E6B3",
"0X c #AD9FBD36FD98",
"qX c #A5A4B4A5FE16",
"wX c #A244AF9EF03E",
"eX c #994DC5FBCD8F",
"rX c #97C7DB64D9F5",
"tX c #8FC1D113D05E",
"yX c #B9C7D27CD392",
"uX c #80AFE7ABD1F9",
"iX c #899ADB5BE542",
"pX c #BD17CD5BF574",
"aX c #B2B2C2B6FF91",
"sX c #BE6CCC9DFFFF",
"dX c #B335C55EF0B8",
"fX c #B949D01CF3AC",
"gX c #8898F682FD59",
"hX c #99D6F9CCFE37",
"jX c #A4A7EE25EB0F",
"kX c #B856F4A9E632",
"lX c #B901FB40FB07",
"zX c #C3E8C3DDC3B7",
"xX c #CBB2CBBCCBD8",
"cX c #C898C838C6DF",
"vX c #CB67D6A2D766",
"bX c #D356D356D356",
"nX c #DAD7DAD7DAD7",
"mX c #D2FAD4BDD8A6",
"MX c #DE73F5DCC40D",
"NX c #D913F7A1DB43",
"BX c #C6B3D327EF70",
"VX c #DAA5DDACE530",
"CX c #C326D301FD04",
"ZX c #CA8DD65FFF3A",
"AX c #CD9CDB71FFFF",
"SX c #C143D268F7D3",
"DX c #D43ADE44FFB6",
"FX c #C27ECD27FFBB",
"GX c #DCF2E700FFE8",
"HX c #DFE7E94FFFFE",
"JX c #D7BBE303FFFF",
"KX c #C697F7D8F77D",
"LX c #CEF0EE27E274",
"PX c #E607E61EE717",
"IX c #E3C0E9EBFB42",
"UX c None",
/* pixels */
"UXUXUXUXUXUXUXUXUX*X*X*XyXeXG.S.UXUXUXUXUXUXUXUXUXUXUXUXUXUXUXUX",
"UXUXUXUXUXUXUXN Z #X&XeXyXvX,XS.S.M.UXUXUXUXUXUXUXUXUXUXUXUXUXUX",
"UXUXUXUXUXm m M n.@X#XrXyXLXY.J.S.F.b.b.UXUXUXUXUXUXUXUXUXUXUXUX",
"UXUXUXUXb d f n.E.&XtXW.Q.iXR.U.H.G.A.z.M UXUXUXUXUXUXUXUXUXUXUX",
"UXUXUXk a g m Z -X:X;XjXW.W.E.U.G.C.v.x.C B UXUXUXUXUXUXUXUXUXUX",
"UXUXj a d g B =X;XMXLXkXgXW.E.U.G.C.p.c.B k.X.UXUXUXUXUXUXUXUXUX",
"UXUXi s g f C :XMXNXKXlXgXW.E.I.G.C.p.c.@X$.{ UXUXUXUXUXUXUXUXUX",
"UX5 u p p d C %XkXlXKXyXrXiXY.J.F.A.p.>.l.x.n l UXUXUXUXUXUXUXUX",
"UX3 u e i a M uXgXhXjX+X<.v.[. X>X2X>X{.[.$XZ V UXUXUXUXUXUXUXUX",
"I 3 r h j b m.T.W.Q.iX].J W ^ 7.8.e.s.8X9X1XyXyXvXVXPXPXUXUXUXUX",
"I , t X.r.c.D.R.T.T.tX<.H W ~ 3.4.9.t.aXDXZXCXpXpXpXpXBXBXIXcXUX",
"* & : } +.h.B.V.P.P.eX;.G W ~ 3.5.9.q.6XIXHXHXHXIXHXHXGXSXVXOXUX",
"% $ 1 : X.+.j.N.B.B.,X;.Q W ~ 2.5.6.0.L.DXDXDXJXJXGXGXGXSXVXoXUX",
"% $ $ 1 5 O.r.h.N.Z.>X,.` E ! 2.3.6.9.f.FXZXZXZXAXAXDXAXpXmXXXUX",
"* $ $ I } o.O.O.r.p. X*.=.Q W ~ 2.5.9.t.qXsXsXsXsXCXCXsXdXxX.XUX",
"* % $ P { } 5 h 5 k.{.-.:.( E W ~ 2.3.7.4X0X0X0XaXaXaX0X9XxXUXUX",
"UXI = P Y } q q w z ].&.*.` H E W ~ 2.7.g.7X7X7X6X6XqX6X8XcXUXUX",
"UXI I I Y ; X X q n <.T &.` J H W ! ~ 2.a.3X3X4X4X5X5X5X8XzXUXUX",
"UXUX{ R  .> o O o c ,.Y T Y K G E W ! ~ e.K.K.K.K.L.L.L.1XOXUXUX",
"UXUX| | $.@.@ + + c #.L U L K F G E W ! 8.s.s.s.g.g.g.g.1XOXUXUX",
"UXUXUX| | | 4 t y ^.R S D S S A F H E W ) u.y.y.y.a.a.s.<XoXUXUX",
"UXUXUXUX[ [ [ 4 l `.$.P D S A A A F G E Q ' w.w.w.e.e.i.<XoXUXUX",
"UXUXUXUXUX2 [ @.x ^././.(.%.#. .U K J G E ( ) _ ' ' 8.i.<XXXUXUX",
"UXUXUXUXUXUX# 2 > 7 x v (._..X|._.(.%.#.o.` _ / / / Q :.zXXXUXUX",
"UXUXUXUXUXUXUXUXUX  - < < < 8 6 9 ~.).).)._.{.}.1.=.] 1.OXUXUXUX",
"UXUXUXUXUXUXUXUXUXUXUXUXUXUXUX. 9 !._./.!.).'.XXoXOX<X<XOXUXUXUX",
"UXUXUXUXUXUXUXUXUXUXUXUXUXUXUXXXoXoXXX.X_.!.0 0 ).XXoXOXoXUXUXUX",
"UXUXUXUXUXUXUXUXUXUXUXUXUXUXOXOXOXzXxXxXzXOXXX).!.)..X0 UXUXUXUX",
"UXUXUXUXUXUXUXUXUXUXUXUXUXoXOXOXcXxXmXnXxXxXzXOXXX_._.0 UXUXUXUX",
"UXUXUXUXUXUXUXUXUXUXUXUXUXUXzXcXxXbXnXnXbXbXbXzXOXXX.XUXUXUXUXUX",
"UXUXUXUXUXUXUXUXUXUXUXUXUXUXUXcXbXnXnXnXbXbXnXzXzXoXUXUXUXUXUXUX",
"UXUXUXUXUXUXUXUXUXUXUXUXUXUXUXUXUXxXbXbXbXxXzXOXUXUXUXUXUXUXUXUX"
};
